# xmcd
#
# Track frame offsets: 
#        150
#        16119
#        34357
#        51929
#        65009
#        80206
#        94258
#        111331
#        126975
#        140532
#        155397
#        170812
#        186634
#        201274
#        217608
#
# Disc length: 3177 seconds
#
# Revision: 1
# Processed by: cddbd v1.5.2PL0 Copyright (c) Steve Scherf et al.
# Submitted via: ExactAudioCopy v1.0b3
#
DISCID=e50c670f
DTITLE=Magic System - Africainement Vôtre
DYEAR=2014
DGENRE=Ambiance
TTITLE0=M'ninda
TTITLE1=Africa
TTITLE2=Magic In The Air (Ft. Ahmed Chawki)
TTITLE3=L'homme Qui Fait Peur
TTITLE4=Femme Est Forte
TTITLE5=Soumalélé
TTITLE6=Travailler
TTITLE7=Ma Mélodie
TTITLE8=Savoir
TTITLE9=Tu Es Fou
TTITLE10=Mamadou
TTITLE11=Kanga Leo
TTITLE12=Plus Haut (Ft. Ayna)
TTITLE13=Abidjan
TTITLE14=Wôyô Ambiance Facile
EXTD=YEAR: 2014
EXTT0=
EXTT1=
EXTT2=
EXTT3=
EXTT4=
EXTT5=
EXTT6=
EXTT7=
EXTT8=
EXTT9=
EXTT10=
EXTT11=
EXTT12=
EXTT13=
EXTT14=
PLAYORDER=
